<mxfile host="app.diagrams.net" modified="2024-04-23T13:26:06.768Z" agent="Mozilla/5.0 (Windows NT 10.0; Win64; x64) AppleWebKit/537.36 (KHTML, like Gecko) Chrome/124.0.0.0 Safari/537.36" etag="WfiS4NOgY45BjYnTVHBi" version="24.2.8" type="github">
  <diagram name="Page-1" id="xbULO-d8cZ62gj_C4-8w">
    <mxGraphModel dx="2100" dy="1130" grid="1" gridSize="10" guides="1" tooltips="1" connect="1" arrows="1" fold="1" page="1" pageScale="1" pageWidth="850" pageHeight="1100" math="0" shadow="0">
      <root>
        <mxCell id="0" />
        <mxCell id="1" parent="0" />
        <mxCell id="IrgzgyzWyKOGPPcn9zRI-1" value="Encoder layers" style="rounded=1;whiteSpace=wrap;html=1;fillColor=#dae8fc;strokeColor=#6c8ebf;" vertex="1" parent="1">
          <mxGeometry x="440" y="840" width="800" height="80" as="geometry" />
        </mxCell>
        <mxCell id="IrgzgyzWyKOGPPcn9zRI-2" value="ا" style="rounded=0;whiteSpace=wrap;html=1;strokeWidth=1;" vertex="1" parent="1">
          <mxGeometry x="440" y="940" width="40" height="20" as="geometry" />
        </mxCell>
        <mxCell id="IrgzgyzWyKOGPPcn9zRI-5" value="ه" style="rounded=0;whiteSpace=wrap;html=1;" vertex="1" parent="1">
          <mxGeometry x="520" y="940" width="40" height="20" as="geometry" />
        </mxCell>
        <mxCell id="IrgzgyzWyKOGPPcn9zRI-6" value="ل" style="rounded=0;whiteSpace=wrap;html=1;" vertex="1" parent="1">
          <mxGeometry x="600" y="940" width="40" height="20" as="geometry" />
        </mxCell>
        <mxCell id="IrgzgyzWyKOGPPcn9zRI-7" value="ا" style="rounded=0;whiteSpace=wrap;html=1;" vertex="1" parent="1">
          <mxGeometry x="680" y="940" width="40" height="20" as="geometry" />
        </mxCell>
        <mxCell id="IrgzgyzWyKOGPPcn9zRI-8" value="_" style="rounded=0;whiteSpace=wrap;html=1;" vertex="1" parent="1">
          <mxGeometry x="760" y="940" width="40" height="20" as="geometry" />
        </mxCell>
        <mxCell id="IrgzgyzWyKOGPPcn9zRI-9" value="ب" style="rounded=0;whiteSpace=wrap;html=1;" vertex="1" parent="1">
          <mxGeometry x="840" y="940" width="40" height="20" as="geometry" />
        </mxCell>
        <mxCell id="IrgzgyzWyKOGPPcn9zRI-10" value="ك&lt;span style=&quot;color: rgba(0, 0, 0, 0); font-family: monospace; font-size: 0px; text-align: start; text-wrap: nowrap;&quot;&gt;%3CmxGraphModel%3E%3Croot%3E%3CmxCell%20id%3D%220%22%2F%3E%3CmxCell%20id%3D%221%22%20parent%3D%220%22%2F%3E%3CmxCell%20id%3D%222%22%20value%3D%22%22%20style%3D%22rounded%3D0%3BwhiteSpace%3Dwrap%3Bhtml%3D1%3B%22%20vertex%3D%221%22%20parent%3D%221%22%3E%3CmxGeometry%20x%3D%22160%22%20y%3D%22260%22%20width%3D%2240%22%20height%3D%2220%22%20as%3D%22geometry%22%2F%3E%3C%2FmxCell%3E%3C%2Froot%3E%3C%2FmxGraphModel%3E&lt;/span&gt;" style="rounded=0;whiteSpace=wrap;html=1;" vertex="1" parent="1">
          <mxGeometry x="920" y="940" width="40" height="20" as="geometry" />
        </mxCell>
        <mxCell id="IrgzgyzWyKOGPPcn9zRI-22" value="م" style="rounded=0;whiteSpace=wrap;html=1;" vertex="1" parent="1">
          <mxGeometry x="1000" y="940" width="40" height="20" as="geometry" />
        </mxCell>
        <mxCell id="IrgzgyzWyKOGPPcn9zRI-24" value="م" style="rounded=0;whiteSpace=wrap;html=1;" vertex="1" parent="1">
          <mxGeometry x="1200" y="940" width="40" height="20" as="geometry" />
        </mxCell>
        <mxCell id="IrgzgyzWyKOGPPcn9zRI-28" value="&lt;b&gt;&lt;font style=&quot;font-size: 18px;&quot;&gt;...&lt;/font&gt;&lt;/b&gt;" style="text;html=1;align=center;verticalAlign=middle;resizable=0;points=[];autosize=1;strokeColor=none;fillColor=none;" vertex="1" parent="1">
          <mxGeometry x="1140" y="930" width="40" height="40" as="geometry" />
        </mxCell>
        <mxCell id="IrgzgyzWyKOGPPcn9zRI-32" value="_" style="rounded=0;whiteSpace=wrap;html=1;" vertex="1" parent="1">
          <mxGeometry x="1080" y="940" width="40" height="20" as="geometry" />
        </mxCell>
        <mxCell id="IrgzgyzWyKOGPPcn9zRI-34" style="edgeStyle=orthogonalEdgeStyle;rounded=0;orthogonalLoop=1;jettySize=auto;html=1;fillColor=#f5f5f5;strokeColor=#666666;" edge="1" parent="1">
          <mxGeometry relative="1" as="geometry">
            <mxPoint x="540" y="940" as="sourcePoint" />
            <mxPoint x="540" y="922" as="targetPoint" />
          </mxGeometry>
        </mxCell>
        <mxCell id="IrgzgyzWyKOGPPcn9zRI-35" value="&lt;font style=&quot;font-size: 10px;&quot;&gt;&lt;font style=&quot;font-size: 10px;&quot;&gt;C1&lt;/font&gt; 0.1&lt;/font&gt;&lt;div style=&quot;font-size: 10px;&quot;&gt;&lt;font style=&quot;font-size: 10px;&quot;&gt;C2 0.2&lt;/font&gt;&lt;/div&gt;&lt;div style=&quot;font-size: 10px;&quot;&gt;&lt;font style=&quot;font-size: 10px;&quot;&gt;C3 0.1&lt;/font&gt;&lt;/div&gt;&lt;div style=&quot;font-size: 10px;&quot;&gt;&lt;font style=&quot;font-size: 10px;&quot;&gt;...&lt;/font&gt;&lt;/div&gt;&lt;div style=&quot;font-size: 10px;&quot;&gt;&lt;font style=&quot;font-size: 10px;&quot;&gt;&lt;br&gt;&lt;/font&gt;&lt;/div&gt;&lt;div style=&quot;font-size: 10px;&quot;&gt;&lt;font style=&quot;font-size: 10px;&quot;&gt;&lt;br&gt;&lt;/font&gt;&lt;/div&gt;&lt;div style=&quot;font-size: 10px;&quot;&gt;&lt;font style=&quot;font-size: 10px;&quot;&gt;&lt;br&gt;&lt;/font&gt;&lt;/div&gt;&lt;div style=&quot;font-size: 10px;&quot;&gt;&lt;font style=&quot;font-size: 10px;&quot;&gt;CN 0.01&lt;/font&gt;&lt;/div&gt;" style="rounded=0;whiteSpace=wrap;html=1;strokeWidth=1;fillColor=#f5f5f5;strokeColor=#666666;fontColor=#333333;" vertex="1" parent="1">
          <mxGeometry x="440" y="640" width="40" height="130" as="geometry" />
        </mxCell>
        <mxCell id="IrgzgyzWyKOGPPcn9zRI-36" value="&lt;br&gt;&lt;font style=&quot;forced-color-adjust: none; color: rgb(0, 0, 0); font-family: Helvetica; font-style: normal; font-variant-ligatures: normal; font-variant-caps: normal; font-weight: 400; letter-spacing: normal; orphans: 2; text-align: center; text-indent: 0px; text-transform: none; widows: 2; word-spacing: 0px; -webkit-text-stroke-width: 0px; white-space: normal; text-decoration-thickness: initial; text-decoration-style: initial; text-decoration-color: initial; font-size: 10px;&quot;&gt;&lt;font style=&quot;forced-color-adjust: none; font-size: 10px;&quot;&gt;C1&lt;/font&gt;&amp;nbsp;0.1&lt;/font&gt;&lt;div style=&quot;forced-color-adjust: none; color: rgb(0, 0, 0); font-family: Helvetica; font-style: normal; font-variant-ligatures: normal; font-variant-caps: normal; font-weight: 400; letter-spacing: normal; orphans: 2; text-align: center; text-indent: 0px; text-transform: none; widows: 2; word-spacing: 0px; -webkit-text-stroke-width: 0px; white-space: normal; text-decoration-thickness: initial; text-decoration-style: initial; text-decoration-color: initial; font-size: 10px;&quot;&gt;&lt;font style=&quot;forced-color-adjust: none; font-size: 10px;&quot;&gt;C2 0.2&lt;/font&gt;&lt;/div&gt;&lt;div style=&quot;forced-color-adjust: none; color: rgb(0, 0, 0); font-family: Helvetica; font-style: normal; font-variant-ligatures: normal; font-variant-caps: normal; font-weight: 400; letter-spacing: normal; orphans: 2; text-align: center; text-indent: 0px; text-transform: none; widows: 2; word-spacing: 0px; -webkit-text-stroke-width: 0px; white-space: normal; text-decoration-thickness: initial; text-decoration-style: initial; text-decoration-color: initial; font-size: 10px;&quot;&gt;&lt;font style=&quot;forced-color-adjust: none; font-size: 10px;&quot;&gt;C3 0.1&lt;/font&gt;&lt;/div&gt;&lt;div style=&quot;forced-color-adjust: none; color: rgb(0, 0, 0); font-family: Helvetica; font-style: normal; font-variant-ligatures: normal; font-variant-caps: normal; font-weight: 400; letter-spacing: normal; orphans: 2; text-align: center; text-indent: 0px; text-transform: none; widows: 2; word-spacing: 0px; -webkit-text-stroke-width: 0px; white-space: normal; text-decoration-thickness: initial; text-decoration-style: initial; text-decoration-color: initial; font-size: 10px;&quot;&gt;&lt;font style=&quot;forced-color-adjust: none; font-size: 10px;&quot;&gt;...&lt;/font&gt;&lt;/div&gt;&lt;div style=&quot;forced-color-adjust: none; color: rgb(0, 0, 0); font-family: Helvetica; font-style: normal; font-variant-ligatures: normal; font-variant-caps: normal; font-weight: 400; letter-spacing: normal; orphans: 2; text-align: center; text-indent: 0px; text-transform: none; widows: 2; word-spacing: 0px; -webkit-text-stroke-width: 0px; white-space: normal; text-decoration-thickness: initial; text-decoration-style: initial; text-decoration-color: initial; font-size: 10px;&quot;&gt;&lt;font style=&quot;forced-color-adjust: none; font-size: 10px;&quot;&gt;&lt;br style=&quot;forced-color-adjust: none;&quot;&gt;&lt;/font&gt;&lt;/div&gt;&lt;div style=&quot;forced-color-adjust: none; color: rgb(0, 0, 0); font-family: Helvetica; font-style: normal; font-variant-ligatures: normal; font-variant-caps: normal; font-weight: 400; letter-spacing: normal; orphans: 2; text-align: center; text-indent: 0px; text-transform: none; widows: 2; word-spacing: 0px; -webkit-text-stroke-width: 0px; white-space: normal; text-decoration-thickness: initial; text-decoration-style: initial; text-decoration-color: initial; font-size: 10px;&quot;&gt;&lt;font style=&quot;forced-color-adjust: none; font-size: 10px;&quot;&gt;&lt;br style=&quot;forced-color-adjust: none;&quot;&gt;&lt;/font&gt;&lt;/div&gt;&lt;div style=&quot;forced-color-adjust: none; color: rgb(0, 0, 0); font-family: Helvetica; font-style: normal; font-variant-ligatures: normal; font-variant-caps: normal; font-weight: 400; letter-spacing: normal; orphans: 2; text-align: center; text-indent: 0px; text-transform: none; widows: 2; word-spacing: 0px; -webkit-text-stroke-width: 0px; white-space: normal; text-decoration-thickness: initial; text-decoration-style: initial; text-decoration-color: initial; font-size: 10px;&quot;&gt;&lt;font style=&quot;forced-color-adjust: none; font-size: 10px;&quot;&gt;&lt;br style=&quot;forced-color-adjust: none;&quot;&gt;&lt;/font&gt;&lt;/div&gt;&lt;div style=&quot;forced-color-adjust: none; color: rgb(0, 0, 0); font-family: Helvetica; font-style: normal; font-variant-ligatures: normal; font-variant-caps: normal; font-weight: 400; letter-spacing: normal; orphans: 2; text-align: center; text-indent: 0px; text-transform: none; widows: 2; word-spacing: 0px; -webkit-text-stroke-width: 0px; white-space: normal; text-decoration-thickness: initial; text-decoration-style: initial; text-decoration-color: initial; font-size: 10px;&quot;&gt;&lt;font style=&quot;forced-color-adjust: none; font-size: 10px;&quot;&gt;CN 0.01&lt;/font&gt;&lt;/div&gt;&lt;div&gt;&lt;br/&gt;&lt;/div&gt;" style="rounded=0;whiteSpace=wrap;html=1;fillColor=#f5f5f5;strokeColor=#666666;fontColor=#333333;" vertex="1" parent="1">
          <mxGeometry x="520" y="640" width="40" height="130" as="geometry" />
        </mxCell>
        <mxCell id="IrgzgyzWyKOGPPcn9zRI-37" value="&lt;br&gt;&lt;font style=&quot;forced-color-adjust: none; color: rgb(0, 0, 0); font-family: Helvetica; font-style: normal; font-variant-ligatures: normal; font-variant-caps: normal; font-weight: 400; letter-spacing: normal; orphans: 2; text-align: center; text-indent: 0px; text-transform: none; widows: 2; word-spacing: 0px; -webkit-text-stroke-width: 0px; white-space: normal; text-decoration-thickness: initial; text-decoration-style: initial; text-decoration-color: initial; font-size: 10px;&quot;&gt;&lt;font style=&quot;forced-color-adjust: none; font-size: 10px;&quot;&gt;C1&lt;/font&gt;&amp;nbsp;0.1&lt;/font&gt;&lt;div style=&quot;forced-color-adjust: none; color: rgb(0, 0, 0); font-family: Helvetica; font-style: normal; font-variant-ligatures: normal; font-variant-caps: normal; font-weight: 400; letter-spacing: normal; orphans: 2; text-align: center; text-indent: 0px; text-transform: none; widows: 2; word-spacing: 0px; -webkit-text-stroke-width: 0px; white-space: normal; text-decoration-thickness: initial; text-decoration-style: initial; text-decoration-color: initial; font-size: 10px;&quot;&gt;&lt;font style=&quot;forced-color-adjust: none; font-size: 10px;&quot;&gt;C2 0.2&lt;/font&gt;&lt;/div&gt;&lt;div style=&quot;forced-color-adjust: none; color: rgb(0, 0, 0); font-family: Helvetica; font-style: normal; font-variant-ligatures: normal; font-variant-caps: normal; font-weight: 400; letter-spacing: normal; orphans: 2; text-align: center; text-indent: 0px; text-transform: none; widows: 2; word-spacing: 0px; -webkit-text-stroke-width: 0px; white-space: normal; text-decoration-thickness: initial; text-decoration-style: initial; text-decoration-color: initial; font-size: 10px;&quot;&gt;&lt;font style=&quot;forced-color-adjust: none; font-size: 10px;&quot;&gt;C3 0.1&lt;/font&gt;&lt;/div&gt;&lt;div style=&quot;forced-color-adjust: none; color: rgb(0, 0, 0); font-family: Helvetica; font-style: normal; font-variant-ligatures: normal; font-variant-caps: normal; font-weight: 400; letter-spacing: normal; orphans: 2; text-align: center; text-indent: 0px; text-transform: none; widows: 2; word-spacing: 0px; -webkit-text-stroke-width: 0px; white-space: normal; text-decoration-thickness: initial; text-decoration-style: initial; text-decoration-color: initial; font-size: 10px;&quot;&gt;&lt;font style=&quot;forced-color-adjust: none; font-size: 10px;&quot;&gt;...&lt;/font&gt;&lt;/div&gt;&lt;div style=&quot;forced-color-adjust: none; color: rgb(0, 0, 0); font-family: Helvetica; font-style: normal; font-variant-ligatures: normal; font-variant-caps: normal; font-weight: 400; letter-spacing: normal; orphans: 2; text-align: center; text-indent: 0px; text-transform: none; widows: 2; word-spacing: 0px; -webkit-text-stroke-width: 0px; white-space: normal; text-decoration-thickness: initial; text-decoration-style: initial; text-decoration-color: initial; font-size: 10px;&quot;&gt;&lt;font style=&quot;forced-color-adjust: none; font-size: 10px;&quot;&gt;&lt;br style=&quot;forced-color-adjust: none;&quot;&gt;&lt;/font&gt;&lt;/div&gt;&lt;div style=&quot;forced-color-adjust: none; color: rgb(0, 0, 0); font-family: Helvetica; font-style: normal; font-variant-ligatures: normal; font-variant-caps: normal; font-weight: 400; letter-spacing: normal; orphans: 2; text-align: center; text-indent: 0px; text-transform: none; widows: 2; word-spacing: 0px; -webkit-text-stroke-width: 0px; white-space: normal; text-decoration-thickness: initial; text-decoration-style: initial; text-decoration-color: initial; font-size: 10px;&quot;&gt;&lt;font style=&quot;forced-color-adjust: none; font-size: 10px;&quot;&gt;&lt;br style=&quot;forced-color-adjust: none;&quot;&gt;&lt;/font&gt;&lt;/div&gt;&lt;div style=&quot;forced-color-adjust: none; color: rgb(0, 0, 0); font-family: Helvetica; font-style: normal; font-variant-ligatures: normal; font-variant-caps: normal; font-weight: 400; letter-spacing: normal; orphans: 2; text-align: center; text-indent: 0px; text-transform: none; widows: 2; word-spacing: 0px; -webkit-text-stroke-width: 0px; white-space: normal; text-decoration-thickness: initial; text-decoration-style: initial; text-decoration-color: initial; font-size: 10px;&quot;&gt;&lt;font style=&quot;forced-color-adjust: none; font-size: 10px;&quot;&gt;&lt;br style=&quot;forced-color-adjust: none;&quot;&gt;&lt;/font&gt;&lt;/div&gt;&lt;div style=&quot;forced-color-adjust: none; color: rgb(0, 0, 0); font-family: Helvetica; font-style: normal; font-variant-ligatures: normal; font-variant-caps: normal; font-weight: 400; letter-spacing: normal; orphans: 2; text-align: center; text-indent: 0px; text-transform: none; widows: 2; word-spacing: 0px; -webkit-text-stroke-width: 0px; white-space: normal; text-decoration-thickness: initial; text-decoration-style: initial; text-decoration-color: initial; font-size: 10px;&quot;&gt;&lt;font style=&quot;forced-color-adjust: none; font-size: 10px;&quot;&gt;CN 0.01&lt;/font&gt;&lt;/div&gt;&lt;div&gt;&lt;br/&gt;&lt;/div&gt;" style="rounded=0;whiteSpace=wrap;html=1;fillColor=#f5f5f5;strokeColor=#666666;fontColor=#333333;" vertex="1" parent="1">
          <mxGeometry x="600" y="640" width="40" height="130" as="geometry" />
        </mxCell>
        <mxCell id="IrgzgyzWyKOGPPcn9zRI-38" value="&lt;br&gt;&lt;font style=&quot;forced-color-adjust: none; color: rgb(0, 0, 0); font-family: Helvetica; font-style: normal; font-variant-ligatures: normal; font-variant-caps: normal; font-weight: 400; letter-spacing: normal; orphans: 2; text-align: center; text-indent: 0px; text-transform: none; widows: 2; word-spacing: 0px; -webkit-text-stroke-width: 0px; white-space: normal; text-decoration-thickness: initial; text-decoration-style: initial; text-decoration-color: initial; font-size: 10px;&quot;&gt;&lt;font style=&quot;forced-color-adjust: none; font-size: 10px;&quot;&gt;C1&lt;/font&gt;&lt;span&gt;&amp;nbsp;&lt;/span&gt;0.1&lt;/font&gt;&lt;div style=&quot;forced-color-adjust: none; color: rgb(0, 0, 0); font-family: Helvetica; font-style: normal; font-variant-ligatures: normal; font-variant-caps: normal; font-weight: 400; letter-spacing: normal; orphans: 2; text-align: center; text-indent: 0px; text-transform: none; widows: 2; word-spacing: 0px; -webkit-text-stroke-width: 0px; white-space: normal; text-decoration-thickness: initial; text-decoration-style: initial; text-decoration-color: initial; font-size: 10px;&quot;&gt;&lt;font style=&quot;forced-color-adjust: none; font-size: 10px;&quot;&gt;C2 0.2&lt;/font&gt;&lt;/div&gt;&lt;div style=&quot;forced-color-adjust: none; color: rgb(0, 0, 0); font-family: Helvetica; font-style: normal; font-variant-ligatures: normal; font-variant-caps: normal; font-weight: 400; letter-spacing: normal; orphans: 2; text-align: center; text-indent: 0px; text-transform: none; widows: 2; word-spacing: 0px; -webkit-text-stroke-width: 0px; white-space: normal; text-decoration-thickness: initial; text-decoration-style: initial; text-decoration-color: initial; font-size: 10px;&quot;&gt;&lt;font style=&quot;forced-color-adjust: none; font-size: 10px;&quot;&gt;C3 0.1&lt;/font&gt;&lt;/div&gt;&lt;div style=&quot;forced-color-adjust: none; color: rgb(0, 0, 0); font-family: Helvetica; font-style: normal; font-variant-ligatures: normal; font-variant-caps: normal; font-weight: 400; letter-spacing: normal; orphans: 2; text-align: center; text-indent: 0px; text-transform: none; widows: 2; word-spacing: 0px; -webkit-text-stroke-width: 0px; white-space: normal; text-decoration-thickness: initial; text-decoration-style: initial; text-decoration-color: initial; font-size: 10px;&quot;&gt;&lt;font style=&quot;forced-color-adjust: none; font-size: 10px;&quot;&gt;...&lt;/font&gt;&lt;/div&gt;&lt;div style=&quot;forced-color-adjust: none; color: rgb(0, 0, 0); font-family: Helvetica; font-style: normal; font-variant-ligatures: normal; font-variant-caps: normal; font-weight: 400; letter-spacing: normal; orphans: 2; text-align: center; text-indent: 0px; text-transform: none; widows: 2; word-spacing: 0px; -webkit-text-stroke-width: 0px; white-space: normal; text-decoration-thickness: initial; text-decoration-style: initial; text-decoration-color: initial; font-size: 10px;&quot;&gt;&lt;font style=&quot;forced-color-adjust: none; font-size: 10px;&quot;&gt;&lt;br style=&quot;forced-color-adjust: none;&quot;&gt;&lt;/font&gt;&lt;/div&gt;&lt;div style=&quot;forced-color-adjust: none; color: rgb(0, 0, 0); font-family: Helvetica; font-style: normal; font-variant-ligatures: normal; font-variant-caps: normal; font-weight: 400; letter-spacing: normal; orphans: 2; text-align: center; text-indent: 0px; text-transform: none; widows: 2; word-spacing: 0px; -webkit-text-stroke-width: 0px; white-space: normal; text-decoration-thickness: initial; text-decoration-style: initial; text-decoration-color: initial; font-size: 10px;&quot;&gt;&lt;font style=&quot;forced-color-adjust: none; font-size: 10px;&quot;&gt;&lt;br style=&quot;forced-color-adjust: none;&quot;&gt;&lt;/font&gt;&lt;/div&gt;&lt;div style=&quot;forced-color-adjust: none; color: rgb(0, 0, 0); font-family: Helvetica; font-style: normal; font-variant-ligatures: normal; font-variant-caps: normal; font-weight: 400; letter-spacing: normal; orphans: 2; text-align: center; text-indent: 0px; text-transform: none; widows: 2; word-spacing: 0px; -webkit-text-stroke-width: 0px; white-space: normal; text-decoration-thickness: initial; text-decoration-style: initial; text-decoration-color: initial; font-size: 10px;&quot;&gt;&lt;font style=&quot;forced-color-adjust: none; font-size: 10px;&quot;&gt;&lt;br style=&quot;forced-color-adjust: none;&quot;&gt;&lt;/font&gt;&lt;/div&gt;&lt;div style=&quot;forced-color-adjust: none; color: rgb(0, 0, 0); font-family: Helvetica; font-style: normal; font-variant-ligatures: normal; font-variant-caps: normal; font-weight: 400; letter-spacing: normal; orphans: 2; text-align: center; text-indent: 0px; text-transform: none; widows: 2; word-spacing: 0px; -webkit-text-stroke-width: 0px; white-space: normal; text-decoration-thickness: initial; text-decoration-style: initial; text-decoration-color: initial; font-size: 10px;&quot;&gt;&lt;font style=&quot;forced-color-adjust: none; font-size: 10px;&quot;&gt;CN 0.01&lt;/font&gt;&lt;/div&gt;&lt;div&gt;&lt;br/&gt;&lt;/div&gt;" style="rounded=0;whiteSpace=wrap;html=1;fillColor=#f5f5f5;strokeColor=#666666;fontColor=#333333;" vertex="1" parent="1">
          <mxGeometry x="680" y="640" width="40" height="130" as="geometry" />
        </mxCell>
        <mxCell id="IrgzgyzWyKOGPPcn9zRI-39" value="&lt;br&gt;&lt;font style=&quot;forced-color-adjust: none; color: rgb(0, 0, 0); font-family: Helvetica; font-style: normal; font-variant-ligatures: normal; font-variant-caps: normal; font-weight: 400; letter-spacing: normal; orphans: 2; text-align: center; text-indent: 0px; text-transform: none; widows: 2; word-spacing: 0px; -webkit-text-stroke-width: 0px; white-space: normal; text-decoration-thickness: initial; text-decoration-style: initial; text-decoration-color: initial; font-size: 10px;&quot;&gt;&lt;font style=&quot;forced-color-adjust: none; font-size: 10px;&quot;&gt;C1&lt;/font&gt;&lt;span&gt;&amp;nbsp;&lt;/span&gt;0.1&lt;/font&gt;&lt;div style=&quot;forced-color-adjust: none; color: rgb(0, 0, 0); font-family: Helvetica; font-style: normal; font-variant-ligatures: normal; font-variant-caps: normal; font-weight: 400; letter-spacing: normal; orphans: 2; text-align: center; text-indent: 0px; text-transform: none; widows: 2; word-spacing: 0px; -webkit-text-stroke-width: 0px; white-space: normal; text-decoration-thickness: initial; text-decoration-style: initial; text-decoration-color: initial; font-size: 10px;&quot;&gt;&lt;font style=&quot;forced-color-adjust: none; font-size: 10px;&quot;&gt;C2 0.2&lt;/font&gt;&lt;/div&gt;&lt;div style=&quot;forced-color-adjust: none; color: rgb(0, 0, 0); font-family: Helvetica; font-style: normal; font-variant-ligatures: normal; font-variant-caps: normal; font-weight: 400; letter-spacing: normal; orphans: 2; text-align: center; text-indent: 0px; text-transform: none; widows: 2; word-spacing: 0px; -webkit-text-stroke-width: 0px; white-space: normal; text-decoration-thickness: initial; text-decoration-style: initial; text-decoration-color: initial; font-size: 10px;&quot;&gt;&lt;font style=&quot;forced-color-adjust: none; font-size: 10px;&quot;&gt;C3 0.1&lt;/font&gt;&lt;/div&gt;&lt;div style=&quot;forced-color-adjust: none; color: rgb(0, 0, 0); font-family: Helvetica; font-style: normal; font-variant-ligatures: normal; font-variant-caps: normal; font-weight: 400; letter-spacing: normal; orphans: 2; text-align: center; text-indent: 0px; text-transform: none; widows: 2; word-spacing: 0px; -webkit-text-stroke-width: 0px; white-space: normal; text-decoration-thickness: initial; text-decoration-style: initial; text-decoration-color: initial; font-size: 10px;&quot;&gt;&lt;font style=&quot;forced-color-adjust: none; font-size: 10px;&quot;&gt;...&lt;/font&gt;&lt;/div&gt;&lt;div style=&quot;forced-color-adjust: none; color: rgb(0, 0, 0); font-family: Helvetica; font-style: normal; font-variant-ligatures: normal; font-variant-caps: normal; font-weight: 400; letter-spacing: normal; orphans: 2; text-align: center; text-indent: 0px; text-transform: none; widows: 2; word-spacing: 0px; -webkit-text-stroke-width: 0px; white-space: normal; text-decoration-thickness: initial; text-decoration-style: initial; text-decoration-color: initial; font-size: 10px;&quot;&gt;&lt;font style=&quot;forced-color-adjust: none; font-size: 10px;&quot;&gt;&lt;br style=&quot;forced-color-adjust: none;&quot;&gt;&lt;/font&gt;&lt;/div&gt;&lt;div style=&quot;forced-color-adjust: none; color: rgb(0, 0, 0); font-family: Helvetica; font-style: normal; font-variant-ligatures: normal; font-variant-caps: normal; font-weight: 400; letter-spacing: normal; orphans: 2; text-align: center; text-indent: 0px; text-transform: none; widows: 2; word-spacing: 0px; -webkit-text-stroke-width: 0px; white-space: normal; text-decoration-thickness: initial; text-decoration-style: initial; text-decoration-color: initial; font-size: 10px;&quot;&gt;&lt;font style=&quot;forced-color-adjust: none; font-size: 10px;&quot;&gt;&lt;br style=&quot;forced-color-adjust: none;&quot;&gt;&lt;/font&gt;&lt;/div&gt;&lt;div style=&quot;forced-color-adjust: none; color: rgb(0, 0, 0); font-family: Helvetica; font-style: normal; font-variant-ligatures: normal; font-variant-caps: normal; font-weight: 400; letter-spacing: normal; orphans: 2; text-align: center; text-indent: 0px; text-transform: none; widows: 2; word-spacing: 0px; -webkit-text-stroke-width: 0px; white-space: normal; text-decoration-thickness: initial; text-decoration-style: initial; text-decoration-color: initial; font-size: 10px;&quot;&gt;&lt;font style=&quot;forced-color-adjust: none; font-size: 10px;&quot;&gt;&lt;br style=&quot;forced-color-adjust: none;&quot;&gt;&lt;/font&gt;&lt;/div&gt;&lt;div style=&quot;forced-color-adjust: none; color: rgb(0, 0, 0); font-family: Helvetica; font-style: normal; font-variant-ligatures: normal; font-variant-caps: normal; font-weight: 400; letter-spacing: normal; orphans: 2; text-align: center; text-indent: 0px; text-transform: none; widows: 2; word-spacing: 0px; -webkit-text-stroke-width: 0px; white-space: normal; text-decoration-thickness: initial; text-decoration-style: initial; text-decoration-color: initial; font-size: 10px;&quot;&gt;&lt;font style=&quot;forced-color-adjust: none; font-size: 10px;&quot;&gt;CN 0.01&lt;/font&gt;&lt;/div&gt;&lt;div&gt;&lt;br/&gt;&lt;/div&gt;" style="rounded=0;whiteSpace=wrap;html=1;fillColor=#f5f5f5;strokeColor=#666666;fontColor=#333333;" vertex="1" parent="1">
          <mxGeometry x="760" y="640" width="40" height="130" as="geometry" />
        </mxCell>
        <mxCell id="IrgzgyzWyKOGPPcn9zRI-40" value="&lt;br&gt;&lt;font style=&quot;forced-color-adjust: none; color: rgb(0, 0, 0); font-family: Helvetica; font-style: normal; font-variant-ligatures: normal; font-variant-caps: normal; font-weight: 400; letter-spacing: normal; orphans: 2; text-align: center; text-indent: 0px; text-transform: none; widows: 2; word-spacing: 0px; -webkit-text-stroke-width: 0px; white-space: normal; text-decoration-thickness: initial; text-decoration-style: initial; text-decoration-color: initial; font-size: 10px;&quot;&gt;&lt;font style=&quot;forced-color-adjust: none; font-size: 10px;&quot;&gt;C1&lt;/font&gt;&lt;span&gt;&amp;nbsp;&lt;/span&gt;0.1&lt;/font&gt;&lt;div style=&quot;forced-color-adjust: none; color: rgb(0, 0, 0); font-family: Helvetica; font-style: normal; font-variant-ligatures: normal; font-variant-caps: normal; font-weight: 400; letter-spacing: normal; orphans: 2; text-align: center; text-indent: 0px; text-transform: none; widows: 2; word-spacing: 0px; -webkit-text-stroke-width: 0px; white-space: normal; text-decoration-thickness: initial; text-decoration-style: initial; text-decoration-color: initial; font-size: 10px;&quot;&gt;&lt;font style=&quot;forced-color-adjust: none; font-size: 10px;&quot;&gt;C2 0.2&lt;/font&gt;&lt;/div&gt;&lt;div style=&quot;forced-color-adjust: none; color: rgb(0, 0, 0); font-family: Helvetica; font-style: normal; font-variant-ligatures: normal; font-variant-caps: normal; font-weight: 400; letter-spacing: normal; orphans: 2; text-align: center; text-indent: 0px; text-transform: none; widows: 2; word-spacing: 0px; -webkit-text-stroke-width: 0px; white-space: normal; text-decoration-thickness: initial; text-decoration-style: initial; text-decoration-color: initial; font-size: 10px;&quot;&gt;&lt;font style=&quot;forced-color-adjust: none; font-size: 10px;&quot;&gt;C3 0.1&lt;/font&gt;&lt;/div&gt;&lt;div style=&quot;forced-color-adjust: none; color: rgb(0, 0, 0); font-family: Helvetica; font-style: normal; font-variant-ligatures: normal; font-variant-caps: normal; font-weight: 400; letter-spacing: normal; orphans: 2; text-align: center; text-indent: 0px; text-transform: none; widows: 2; word-spacing: 0px; -webkit-text-stroke-width: 0px; white-space: normal; text-decoration-thickness: initial; text-decoration-style: initial; text-decoration-color: initial; font-size: 10px;&quot;&gt;&lt;font style=&quot;forced-color-adjust: none; font-size: 10px;&quot;&gt;...&lt;/font&gt;&lt;/div&gt;&lt;div style=&quot;forced-color-adjust: none; color: rgb(0, 0, 0); font-family: Helvetica; font-style: normal; font-variant-ligatures: normal; font-variant-caps: normal; font-weight: 400; letter-spacing: normal; orphans: 2; text-align: center; text-indent: 0px; text-transform: none; widows: 2; word-spacing: 0px; -webkit-text-stroke-width: 0px; white-space: normal; text-decoration-thickness: initial; text-decoration-style: initial; text-decoration-color: initial; font-size: 10px;&quot;&gt;&lt;font style=&quot;forced-color-adjust: none; font-size: 10px;&quot;&gt;&lt;br style=&quot;forced-color-adjust: none;&quot;&gt;&lt;/font&gt;&lt;/div&gt;&lt;div style=&quot;forced-color-adjust: none; color: rgb(0, 0, 0); font-family: Helvetica; font-style: normal; font-variant-ligatures: normal; font-variant-caps: normal; font-weight: 400; letter-spacing: normal; orphans: 2; text-align: center; text-indent: 0px; text-transform: none; widows: 2; word-spacing: 0px; -webkit-text-stroke-width: 0px; white-space: normal; text-decoration-thickness: initial; text-decoration-style: initial; text-decoration-color: initial; font-size: 10px;&quot;&gt;&lt;font style=&quot;forced-color-adjust: none; font-size: 10px;&quot;&gt;&lt;br style=&quot;forced-color-adjust: none;&quot;&gt;&lt;/font&gt;&lt;/div&gt;&lt;div style=&quot;forced-color-adjust: none; color: rgb(0, 0, 0); font-family: Helvetica; font-style: normal; font-variant-ligatures: normal; font-variant-caps: normal; font-weight: 400; letter-spacing: normal; orphans: 2; text-align: center; text-indent: 0px; text-transform: none; widows: 2; word-spacing: 0px; -webkit-text-stroke-width: 0px; white-space: normal; text-decoration-thickness: initial; text-decoration-style: initial; text-decoration-color: initial; font-size: 10px;&quot;&gt;&lt;font style=&quot;forced-color-adjust: none; font-size: 10px;&quot;&gt;&lt;br style=&quot;forced-color-adjust: none;&quot;&gt;&lt;/font&gt;&lt;/div&gt;&lt;div style=&quot;forced-color-adjust: none; color: rgb(0, 0, 0); font-family: Helvetica; font-style: normal; font-variant-ligatures: normal; font-variant-caps: normal; font-weight: 400; letter-spacing: normal; orphans: 2; text-align: center; text-indent: 0px; text-transform: none; widows: 2; word-spacing: 0px; -webkit-text-stroke-width: 0px; white-space: normal; text-decoration-thickness: initial; text-decoration-style: initial; text-decoration-color: initial; font-size: 10px;&quot;&gt;&lt;font style=&quot;forced-color-adjust: none; font-size: 10px;&quot;&gt;CN 0.01&lt;/font&gt;&lt;/div&gt;&lt;div&gt;&lt;br/&gt;&lt;/div&gt;" style="rounded=0;whiteSpace=wrap;html=1;fillColor=#f5f5f5;strokeColor=#666666;fontColor=#333333;" vertex="1" parent="1">
          <mxGeometry x="840" y="640" width="40" height="130" as="geometry" />
        </mxCell>
        <mxCell id="IrgzgyzWyKOGPPcn9zRI-41" value="&lt;br&gt;&lt;font style=&quot;forced-color-adjust: none; color: rgb(0, 0, 0); font-family: Helvetica; font-style: normal; font-variant-ligatures: normal; font-variant-caps: normal; font-weight: 400; letter-spacing: normal; orphans: 2; text-align: center; text-indent: 0px; text-transform: none; widows: 2; word-spacing: 0px; -webkit-text-stroke-width: 0px; white-space: normal; text-decoration-thickness: initial; text-decoration-style: initial; text-decoration-color: initial; font-size: 10px;&quot;&gt;&lt;font style=&quot;forced-color-adjust: none; font-size: 10px;&quot;&gt;C1&lt;/font&gt;&amp;nbsp;0.1&lt;/font&gt;&lt;div style=&quot;forced-color-adjust: none; color: rgb(0, 0, 0); font-family: Helvetica; font-style: normal; font-variant-ligatures: normal; font-variant-caps: normal; font-weight: 400; letter-spacing: normal; orphans: 2; text-align: center; text-indent: 0px; text-transform: none; widows: 2; word-spacing: 0px; -webkit-text-stroke-width: 0px; white-space: normal; text-decoration-thickness: initial; text-decoration-style: initial; text-decoration-color: initial; font-size: 10px;&quot;&gt;&lt;font style=&quot;forced-color-adjust: none; font-size: 10px;&quot;&gt;C2 0.2&lt;/font&gt;&lt;/div&gt;&lt;div style=&quot;forced-color-adjust: none; color: rgb(0, 0, 0); font-family: Helvetica; font-style: normal; font-variant-ligatures: normal; font-variant-caps: normal; font-weight: 400; letter-spacing: normal; orphans: 2; text-align: center; text-indent: 0px; text-transform: none; widows: 2; word-spacing: 0px; -webkit-text-stroke-width: 0px; white-space: normal; text-decoration-thickness: initial; text-decoration-style: initial; text-decoration-color: initial; font-size: 10px;&quot;&gt;&lt;font style=&quot;forced-color-adjust: none; font-size: 10px;&quot;&gt;C3 0.1&lt;/font&gt;&lt;/div&gt;&lt;div style=&quot;forced-color-adjust: none; color: rgb(0, 0, 0); font-family: Helvetica; font-style: normal; font-variant-ligatures: normal; font-variant-caps: normal; font-weight: 400; letter-spacing: normal; orphans: 2; text-align: center; text-indent: 0px; text-transform: none; widows: 2; word-spacing: 0px; -webkit-text-stroke-width: 0px; white-space: normal; text-decoration-thickness: initial; text-decoration-style: initial; text-decoration-color: initial; font-size: 10px;&quot;&gt;&lt;font style=&quot;forced-color-adjust: none; font-size: 10px;&quot;&gt;...&lt;/font&gt;&lt;/div&gt;&lt;div style=&quot;forced-color-adjust: none; color: rgb(0, 0, 0); font-family: Helvetica; font-style: normal; font-variant-ligatures: normal; font-variant-caps: normal; font-weight: 400; letter-spacing: normal; orphans: 2; text-align: center; text-indent: 0px; text-transform: none; widows: 2; word-spacing: 0px; -webkit-text-stroke-width: 0px; white-space: normal; text-decoration-thickness: initial; text-decoration-style: initial; text-decoration-color: initial; font-size: 10px;&quot;&gt;&lt;font style=&quot;forced-color-adjust: none; font-size: 10px;&quot;&gt;&lt;br style=&quot;forced-color-adjust: none;&quot;&gt;&lt;/font&gt;&lt;/div&gt;&lt;div style=&quot;forced-color-adjust: none; color: rgb(0, 0, 0); font-family: Helvetica; font-style: normal; font-variant-ligatures: normal; font-variant-caps: normal; font-weight: 400; letter-spacing: normal; orphans: 2; text-align: center; text-indent: 0px; text-transform: none; widows: 2; word-spacing: 0px; -webkit-text-stroke-width: 0px; white-space: normal; text-decoration-thickness: initial; text-decoration-style: initial; text-decoration-color: initial; font-size: 10px;&quot;&gt;&lt;font style=&quot;forced-color-adjust: none; font-size: 10px;&quot;&gt;&lt;br style=&quot;forced-color-adjust: none;&quot;&gt;&lt;/font&gt;&lt;/div&gt;&lt;div style=&quot;forced-color-adjust: none; color: rgb(0, 0, 0); font-family: Helvetica; font-style: normal; font-variant-ligatures: normal; font-variant-caps: normal; font-weight: 400; letter-spacing: normal; orphans: 2; text-align: center; text-indent: 0px; text-transform: none; widows: 2; word-spacing: 0px; -webkit-text-stroke-width: 0px; white-space: normal; text-decoration-thickness: initial; text-decoration-style: initial; text-decoration-color: initial; font-size: 10px;&quot;&gt;&lt;font style=&quot;forced-color-adjust: none; font-size: 10px;&quot;&gt;&lt;br style=&quot;forced-color-adjust: none;&quot;&gt;&lt;/font&gt;&lt;/div&gt;&lt;div style=&quot;forced-color-adjust: none; color: rgb(0, 0, 0); font-family: Helvetica; font-style: normal; font-variant-ligatures: normal; font-variant-caps: normal; font-weight: 400; letter-spacing: normal; orphans: 2; text-align: center; text-indent: 0px; text-transform: none; widows: 2; word-spacing: 0px; -webkit-text-stroke-width: 0px; white-space: normal; text-decoration-thickness: initial; text-decoration-style: initial; text-decoration-color: initial; font-size: 10px;&quot;&gt;&lt;font style=&quot;forced-color-adjust: none; font-size: 10px;&quot;&gt;CN 0.01&lt;/font&gt;&lt;/div&gt;&lt;div&gt;&lt;br/&gt;&lt;/div&gt;" style="rounded=0;whiteSpace=wrap;html=1;fillColor=#f5f5f5;strokeColor=#666666;fontColor=#333333;" vertex="1" parent="1">
          <mxGeometry x="920" y="640" width="40" height="130" as="geometry" />
        </mxCell>
        <mxCell id="IrgzgyzWyKOGPPcn9zRI-42" value="&lt;br&gt;&lt;font style=&quot;forced-color-adjust: none; color: rgb(0, 0, 0); font-family: Helvetica; font-style: normal; font-variant-ligatures: normal; font-variant-caps: normal; font-weight: 400; letter-spacing: normal; orphans: 2; text-align: center; text-indent: 0px; text-transform: none; widows: 2; word-spacing: 0px; -webkit-text-stroke-width: 0px; white-space: normal; text-decoration-thickness: initial; text-decoration-style: initial; text-decoration-color: initial; font-size: 10px;&quot;&gt;&lt;font style=&quot;forced-color-adjust: none; font-size: 10px;&quot;&gt;C1&lt;/font&gt;&lt;span&gt;&amp;nbsp;&lt;/span&gt;0.1&lt;/font&gt;&lt;div style=&quot;forced-color-adjust: none; color: rgb(0, 0, 0); font-family: Helvetica; font-style: normal; font-variant-ligatures: normal; font-variant-caps: normal; font-weight: 400; letter-spacing: normal; orphans: 2; text-align: center; text-indent: 0px; text-transform: none; widows: 2; word-spacing: 0px; -webkit-text-stroke-width: 0px; white-space: normal; text-decoration-thickness: initial; text-decoration-style: initial; text-decoration-color: initial; font-size: 10px;&quot;&gt;&lt;font style=&quot;forced-color-adjust: none; font-size: 10px;&quot;&gt;C2 0.2&lt;/font&gt;&lt;/div&gt;&lt;div style=&quot;forced-color-adjust: none; color: rgb(0, 0, 0); font-family: Helvetica; font-style: normal; font-variant-ligatures: normal; font-variant-caps: normal; font-weight: 400; letter-spacing: normal; orphans: 2; text-align: center; text-indent: 0px; text-transform: none; widows: 2; word-spacing: 0px; -webkit-text-stroke-width: 0px; white-space: normal; text-decoration-thickness: initial; text-decoration-style: initial; text-decoration-color: initial; font-size: 10px;&quot;&gt;&lt;font style=&quot;forced-color-adjust: none; font-size: 10px;&quot;&gt;C3 0.1&lt;/font&gt;&lt;/div&gt;&lt;div style=&quot;forced-color-adjust: none; color: rgb(0, 0, 0); font-family: Helvetica; font-style: normal; font-variant-ligatures: normal; font-variant-caps: normal; font-weight: 400; letter-spacing: normal; orphans: 2; text-align: center; text-indent: 0px; text-transform: none; widows: 2; word-spacing: 0px; -webkit-text-stroke-width: 0px; white-space: normal; text-decoration-thickness: initial; text-decoration-style: initial; text-decoration-color: initial; font-size: 10px;&quot;&gt;&lt;font style=&quot;forced-color-adjust: none; font-size: 10px;&quot;&gt;...&lt;/font&gt;&lt;/div&gt;&lt;div style=&quot;forced-color-adjust: none; color: rgb(0, 0, 0); font-family: Helvetica; font-style: normal; font-variant-ligatures: normal; font-variant-caps: normal; font-weight: 400; letter-spacing: normal; orphans: 2; text-align: center; text-indent: 0px; text-transform: none; widows: 2; word-spacing: 0px; -webkit-text-stroke-width: 0px; white-space: normal; text-decoration-thickness: initial; text-decoration-style: initial; text-decoration-color: initial; font-size: 10px;&quot;&gt;&lt;font style=&quot;forced-color-adjust: none; font-size: 10px;&quot;&gt;&lt;br style=&quot;forced-color-adjust: none;&quot;&gt;&lt;/font&gt;&lt;/div&gt;&lt;div style=&quot;forced-color-adjust: none; color: rgb(0, 0, 0); font-family: Helvetica; font-style: normal; font-variant-ligatures: normal; font-variant-caps: normal; font-weight: 400; letter-spacing: normal; orphans: 2; text-align: center; text-indent: 0px; text-transform: none; widows: 2; word-spacing: 0px; -webkit-text-stroke-width: 0px; white-space: normal; text-decoration-thickness: initial; text-decoration-style: initial; text-decoration-color: initial; font-size: 10px;&quot;&gt;&lt;font style=&quot;forced-color-adjust: none; font-size: 10px;&quot;&gt;&lt;br style=&quot;forced-color-adjust: none;&quot;&gt;&lt;/font&gt;&lt;/div&gt;&lt;div style=&quot;forced-color-adjust: none; color: rgb(0, 0, 0); font-family: Helvetica; font-style: normal; font-variant-ligatures: normal; font-variant-caps: normal; font-weight: 400; letter-spacing: normal; orphans: 2; text-align: center; text-indent: 0px; text-transform: none; widows: 2; word-spacing: 0px; -webkit-text-stroke-width: 0px; white-space: normal; text-decoration-thickness: initial; text-decoration-style: initial; text-decoration-color: initial; font-size: 10px;&quot;&gt;&lt;font style=&quot;forced-color-adjust: none; font-size: 10px;&quot;&gt;&lt;br style=&quot;forced-color-adjust: none;&quot;&gt;&lt;/font&gt;&lt;/div&gt;&lt;div style=&quot;forced-color-adjust: none; color: rgb(0, 0, 0); font-family: Helvetica; font-style: normal; font-variant-ligatures: normal; font-variant-caps: normal; font-weight: 400; letter-spacing: normal; orphans: 2; text-align: center; text-indent: 0px; text-transform: none; widows: 2; word-spacing: 0px; -webkit-text-stroke-width: 0px; white-space: normal; text-decoration-thickness: initial; text-decoration-style: initial; text-decoration-color: initial; font-size: 10px;&quot;&gt;&lt;font style=&quot;forced-color-adjust: none; font-size: 10px;&quot;&gt;CN 0.01&lt;/font&gt;&lt;/div&gt;&lt;div&gt;&lt;br/&gt;&lt;/div&gt;" style="rounded=0;whiteSpace=wrap;html=1;fillColor=#f5f5f5;strokeColor=#666666;fontColor=#333333;" vertex="1" parent="1">
          <mxGeometry x="1000" y="640" width="40" height="130" as="geometry" />
        </mxCell>
        <mxCell id="IrgzgyzWyKOGPPcn9zRI-43" value="&lt;br&gt;&lt;font style=&quot;forced-color-adjust: none; color: rgb(0, 0, 0); font-family: Helvetica; font-style: normal; font-variant-ligatures: normal; font-variant-caps: normal; font-weight: 400; letter-spacing: normal; orphans: 2; text-align: center; text-indent: 0px; text-transform: none; widows: 2; word-spacing: 0px; -webkit-text-stroke-width: 0px; white-space: normal; text-decoration-thickness: initial; text-decoration-style: initial; text-decoration-color: initial; font-size: 10px;&quot;&gt;&lt;font style=&quot;forced-color-adjust: none; font-size: 10px;&quot;&gt;C1&lt;/font&gt;&amp;nbsp;0.1&lt;/font&gt;&lt;div style=&quot;forced-color-adjust: none; color: rgb(0, 0, 0); font-family: Helvetica; font-style: normal; font-variant-ligatures: normal; font-variant-caps: normal; font-weight: 400; letter-spacing: normal; orphans: 2; text-align: center; text-indent: 0px; text-transform: none; widows: 2; word-spacing: 0px; -webkit-text-stroke-width: 0px; white-space: normal; text-decoration-thickness: initial; text-decoration-style: initial; text-decoration-color: initial; font-size: 10px;&quot;&gt;&lt;font style=&quot;forced-color-adjust: none; font-size: 10px;&quot;&gt;C2 0.2&lt;/font&gt;&lt;/div&gt;&lt;div style=&quot;forced-color-adjust: none; color: rgb(0, 0, 0); font-family: Helvetica; font-style: normal; font-variant-ligatures: normal; font-variant-caps: normal; font-weight: 400; letter-spacing: normal; orphans: 2; text-align: center; text-indent: 0px; text-transform: none; widows: 2; word-spacing: 0px; -webkit-text-stroke-width: 0px; white-space: normal; text-decoration-thickness: initial; text-decoration-style: initial; text-decoration-color: initial; font-size: 10px;&quot;&gt;&lt;font style=&quot;forced-color-adjust: none; font-size: 10px;&quot;&gt;C3 0.1&lt;/font&gt;&lt;/div&gt;&lt;div style=&quot;forced-color-adjust: none; color: rgb(0, 0, 0); font-family: Helvetica; font-style: normal; font-variant-ligatures: normal; font-variant-caps: normal; font-weight: 400; letter-spacing: normal; orphans: 2; text-align: center; text-indent: 0px; text-transform: none; widows: 2; word-spacing: 0px; -webkit-text-stroke-width: 0px; white-space: normal; text-decoration-thickness: initial; text-decoration-style: initial; text-decoration-color: initial; font-size: 10px;&quot;&gt;&lt;font style=&quot;forced-color-adjust: none; font-size: 10px;&quot;&gt;...&lt;/font&gt;&lt;/div&gt;&lt;div style=&quot;forced-color-adjust: none; color: rgb(0, 0, 0); font-family: Helvetica; font-style: normal; font-variant-ligatures: normal; font-variant-caps: normal; font-weight: 400; letter-spacing: normal; orphans: 2; text-align: center; text-indent: 0px; text-transform: none; widows: 2; word-spacing: 0px; -webkit-text-stroke-width: 0px; white-space: normal; text-decoration-thickness: initial; text-decoration-style: initial; text-decoration-color: initial; font-size: 10px;&quot;&gt;&lt;font style=&quot;forced-color-adjust: none; font-size: 10px;&quot;&gt;&lt;br style=&quot;forced-color-adjust: none;&quot;&gt;&lt;/font&gt;&lt;/div&gt;&lt;div style=&quot;forced-color-adjust: none; color: rgb(0, 0, 0); font-family: Helvetica; font-style: normal; font-variant-ligatures: normal; font-variant-caps: normal; font-weight: 400; letter-spacing: normal; orphans: 2; text-align: center; text-indent: 0px; text-transform: none; widows: 2; word-spacing: 0px; -webkit-text-stroke-width: 0px; white-space: normal; text-decoration-thickness: initial; text-decoration-style: initial; text-decoration-color: initial; font-size: 10px;&quot;&gt;&lt;font style=&quot;forced-color-adjust: none; font-size: 10px;&quot;&gt;&lt;br style=&quot;forced-color-adjust: none;&quot;&gt;&lt;/font&gt;&lt;/div&gt;&lt;div style=&quot;forced-color-adjust: none; color: rgb(0, 0, 0); font-family: Helvetica; font-style: normal; font-variant-ligatures: normal; font-variant-caps: normal; font-weight: 400; letter-spacing: normal; orphans: 2; text-align: center; text-indent: 0px; text-transform: none; widows: 2; word-spacing: 0px; -webkit-text-stroke-width: 0px; white-space: normal; text-decoration-thickness: initial; text-decoration-style: initial; text-decoration-color: initial; font-size: 10px;&quot;&gt;&lt;font style=&quot;forced-color-adjust: none; font-size: 10px;&quot;&gt;&lt;br style=&quot;forced-color-adjust: none;&quot;&gt;&lt;/font&gt;&lt;/div&gt;&lt;div style=&quot;forced-color-adjust: none; color: rgb(0, 0, 0); font-family: Helvetica; font-style: normal; font-variant-ligatures: normal; font-variant-caps: normal; font-weight: 400; letter-spacing: normal; orphans: 2; text-align: center; text-indent: 0px; text-transform: none; widows: 2; word-spacing: 0px; -webkit-text-stroke-width: 0px; white-space: normal; text-decoration-thickness: initial; text-decoration-style: initial; text-decoration-color: initial; font-size: 10px;&quot;&gt;&lt;font style=&quot;forced-color-adjust: none; font-size: 10px;&quot;&gt;CN 0.01&lt;/font&gt;&lt;/div&gt;&lt;div&gt;&lt;br/&gt;&lt;/div&gt;" style="rounded=0;whiteSpace=wrap;html=1;fillColor=#f5f5f5;strokeColor=#666666;fontColor=#333333;" vertex="1" parent="1">
          <mxGeometry x="1200" y="640" width="40" height="130" as="geometry" />
        </mxCell>
        <mxCell id="IrgzgyzWyKOGPPcn9zRI-44" value="&lt;b&gt;&lt;font style=&quot;font-size: 18px;&quot;&gt;...&lt;/font&gt;&lt;/b&gt;" style="text;html=1;align=center;verticalAlign=middle;resizable=0;points=[];autosize=1;" vertex="1" parent="1">
          <mxGeometry x="1140" y="685" width="40" height="40" as="geometry" />
        </mxCell>
        <mxCell id="IrgzgyzWyKOGPPcn9zRI-45" value="&lt;br&gt;&lt;font style=&quot;forced-color-adjust: none; color: rgb(0, 0, 0); font-family: Helvetica; font-style: normal; font-variant-ligatures: normal; font-variant-caps: normal; font-weight: 400; letter-spacing: normal; orphans: 2; text-align: center; text-indent: 0px; text-transform: none; widows: 2; word-spacing: 0px; -webkit-text-stroke-width: 0px; white-space: normal; text-decoration-thickness: initial; text-decoration-style: initial; text-decoration-color: initial; font-size: 10px;&quot;&gt;&lt;font style=&quot;forced-color-adjust: none; font-size: 10px;&quot;&gt;C1&lt;/font&gt;&lt;span&gt;&amp;nbsp;&lt;/span&gt;0.1&lt;/font&gt;&lt;div style=&quot;forced-color-adjust: none; color: rgb(0, 0, 0); font-family: Helvetica; font-style: normal; font-variant-ligatures: normal; font-variant-caps: normal; font-weight: 400; letter-spacing: normal; orphans: 2; text-align: center; text-indent: 0px; text-transform: none; widows: 2; word-spacing: 0px; -webkit-text-stroke-width: 0px; white-space: normal; text-decoration-thickness: initial; text-decoration-style: initial; text-decoration-color: initial; font-size: 10px;&quot;&gt;&lt;font style=&quot;forced-color-adjust: none; font-size: 10px;&quot;&gt;C2 0.2&lt;/font&gt;&lt;/div&gt;&lt;div style=&quot;forced-color-adjust: none; color: rgb(0, 0, 0); font-family: Helvetica; font-style: normal; font-variant-ligatures: normal; font-variant-caps: normal; font-weight: 400; letter-spacing: normal; orphans: 2; text-align: center; text-indent: 0px; text-transform: none; widows: 2; word-spacing: 0px; -webkit-text-stroke-width: 0px; white-space: normal; text-decoration-thickness: initial; text-decoration-style: initial; text-decoration-color: initial; font-size: 10px;&quot;&gt;&lt;font style=&quot;forced-color-adjust: none; font-size: 10px;&quot;&gt;C3 0.1&lt;/font&gt;&lt;/div&gt;&lt;div style=&quot;forced-color-adjust: none; color: rgb(0, 0, 0); font-family: Helvetica; font-style: normal; font-variant-ligatures: normal; font-variant-caps: normal; font-weight: 400; letter-spacing: normal; orphans: 2; text-align: center; text-indent: 0px; text-transform: none; widows: 2; word-spacing: 0px; -webkit-text-stroke-width: 0px; white-space: normal; text-decoration-thickness: initial; text-decoration-style: initial; text-decoration-color: initial; font-size: 10px;&quot;&gt;&lt;font style=&quot;forced-color-adjust: none; font-size: 10px;&quot;&gt;...&lt;/font&gt;&lt;/div&gt;&lt;div style=&quot;forced-color-adjust: none; color: rgb(0, 0, 0); font-family: Helvetica; font-style: normal; font-variant-ligatures: normal; font-variant-caps: normal; font-weight: 400; letter-spacing: normal; orphans: 2; text-align: center; text-indent: 0px; text-transform: none; widows: 2; word-spacing: 0px; -webkit-text-stroke-width: 0px; white-space: normal; text-decoration-thickness: initial; text-decoration-style: initial; text-decoration-color: initial; font-size: 10px;&quot;&gt;&lt;font style=&quot;forced-color-adjust: none; font-size: 10px;&quot;&gt;&lt;br style=&quot;forced-color-adjust: none;&quot;&gt;&lt;/font&gt;&lt;/div&gt;&lt;div style=&quot;forced-color-adjust: none; color: rgb(0, 0, 0); font-family: Helvetica; font-style: normal; font-variant-ligatures: normal; font-variant-caps: normal; font-weight: 400; letter-spacing: normal; orphans: 2; text-align: center; text-indent: 0px; text-transform: none; widows: 2; word-spacing: 0px; -webkit-text-stroke-width: 0px; white-space: normal; text-decoration-thickness: initial; text-decoration-style: initial; text-decoration-color: initial; font-size: 10px;&quot;&gt;&lt;font style=&quot;forced-color-adjust: none; font-size: 10px;&quot;&gt;&lt;br style=&quot;forced-color-adjust: none;&quot;&gt;&lt;/font&gt;&lt;/div&gt;&lt;div style=&quot;forced-color-adjust: none; color: rgb(0, 0, 0); font-family: Helvetica; font-style: normal; font-variant-ligatures: normal; font-variant-caps: normal; font-weight: 400; letter-spacing: normal; orphans: 2; text-align: center; text-indent: 0px; text-transform: none; widows: 2; word-spacing: 0px; -webkit-text-stroke-width: 0px; white-space: normal; text-decoration-thickness: initial; text-decoration-style: initial; text-decoration-color: initial; font-size: 10px;&quot;&gt;&lt;font style=&quot;forced-color-adjust: none; font-size: 10px;&quot;&gt;&lt;br style=&quot;forced-color-adjust: none;&quot;&gt;&lt;/font&gt;&lt;/div&gt;&lt;div style=&quot;forced-color-adjust: none; color: rgb(0, 0, 0); font-family: Helvetica; font-style: normal; font-variant-ligatures: normal; font-variant-caps: normal; font-weight: 400; letter-spacing: normal; orphans: 2; text-align: center; text-indent: 0px; text-transform: none; widows: 2; word-spacing: 0px; -webkit-text-stroke-width: 0px; white-space: normal; text-decoration-thickness: initial; text-decoration-style: initial; text-decoration-color: initial; font-size: 10px;&quot;&gt;&lt;font style=&quot;forced-color-adjust: none; font-size: 10px;&quot;&gt;CN 0.01&lt;/font&gt;&lt;/div&gt;&lt;div&gt;&lt;br/&gt;&lt;/div&gt;" style="rounded=0;whiteSpace=wrap;html=1;fillColor=#f5f5f5;strokeColor=#666666;fontColor=#333333;" vertex="1" parent="1">
          <mxGeometry x="1080" y="640" width="40" height="130" as="geometry" />
        </mxCell>
        <mxCell id="IrgzgyzWyKOGPPcn9zRI-56" value="Token classification head" style="rounded=1;whiteSpace=wrap;html=1;fillColor=#dae8fc;strokeColor=#6c8ebf;" vertex="1" parent="1">
          <mxGeometry x="440" y="790" width="800" height="30" as="geometry" />
        </mxCell>
        <mxCell id="IrgzgyzWyKOGPPcn9zRI-59" style="edgeStyle=orthogonalEdgeStyle;rounded=0;orthogonalLoop=1;jettySize=auto;html=1;" edge="1" parent="1">
          <mxGeometry relative="1" as="geometry">
            <mxPoint x="459.52" y="790" as="sourcePoint" />
            <mxPoint x="459.52" y="772" as="targetPoint" />
          </mxGeometry>
        </mxCell>
        <mxCell id="IrgzgyzWyKOGPPcn9zRI-62" style="edgeStyle=orthogonalEdgeStyle;rounded=0;orthogonalLoop=1;jettySize=auto;html=1;" edge="1" parent="1">
          <mxGeometry relative="1" as="geometry">
            <mxPoint x="619.52" y="788" as="sourcePoint" />
            <mxPoint x="619.52" y="770" as="targetPoint" />
          </mxGeometry>
        </mxCell>
        <mxCell id="IrgzgyzWyKOGPPcn9zRI-63" style="edgeStyle=orthogonalEdgeStyle;rounded=0;orthogonalLoop=1;jettySize=auto;html=1;" edge="1" parent="1">
          <mxGeometry relative="1" as="geometry">
            <mxPoint x="539.52" y="790" as="sourcePoint" />
            <mxPoint x="539.52" y="772" as="targetPoint" />
          </mxGeometry>
        </mxCell>
        <mxCell id="IrgzgyzWyKOGPPcn9zRI-64" style="edgeStyle=orthogonalEdgeStyle;rounded=0;orthogonalLoop=1;jettySize=auto;html=1;" edge="1" parent="1">
          <mxGeometry relative="1" as="geometry">
            <mxPoint x="699.52" y="790" as="sourcePoint" />
            <mxPoint x="699.52" y="772" as="targetPoint" />
          </mxGeometry>
        </mxCell>
        <mxCell id="IrgzgyzWyKOGPPcn9zRI-65" style="edgeStyle=orthogonalEdgeStyle;rounded=0;orthogonalLoop=1;jettySize=auto;html=1;" edge="1" parent="1">
          <mxGeometry relative="1" as="geometry">
            <mxPoint x="779.52" y="788" as="sourcePoint" />
            <mxPoint x="779.52" y="770" as="targetPoint" />
          </mxGeometry>
        </mxCell>
        <mxCell id="IrgzgyzWyKOGPPcn9zRI-66" style="edgeStyle=orthogonalEdgeStyle;rounded=0;orthogonalLoop=1;jettySize=auto;html=1;" edge="1" parent="1">
          <mxGeometry relative="1" as="geometry">
            <mxPoint x="859.52" y="788" as="sourcePoint" />
            <mxPoint x="859.52" y="770" as="targetPoint" />
          </mxGeometry>
        </mxCell>
        <mxCell id="IrgzgyzWyKOGPPcn9zRI-67" style="edgeStyle=orthogonalEdgeStyle;rounded=0;orthogonalLoop=1;jettySize=auto;html=1;" edge="1" parent="1">
          <mxGeometry relative="1" as="geometry">
            <mxPoint x="939.52" y="790" as="sourcePoint" />
            <mxPoint x="939.52" y="772" as="targetPoint" />
          </mxGeometry>
        </mxCell>
        <mxCell id="IrgzgyzWyKOGPPcn9zRI-68" style="edgeStyle=orthogonalEdgeStyle;rounded=0;orthogonalLoop=1;jettySize=auto;html=1;" edge="1" parent="1">
          <mxGeometry relative="1" as="geometry">
            <mxPoint x="1019.52" y="790" as="sourcePoint" />
            <mxPoint x="1019.52" y="772" as="targetPoint" />
          </mxGeometry>
        </mxCell>
        <mxCell id="IrgzgyzWyKOGPPcn9zRI-69" style="edgeStyle=orthogonalEdgeStyle;rounded=0;orthogonalLoop=1;jettySize=auto;html=1;" edge="1" parent="1">
          <mxGeometry relative="1" as="geometry">
            <mxPoint x="1099.52" y="790" as="sourcePoint" />
            <mxPoint x="1099.52" y="772" as="targetPoint" />
          </mxGeometry>
        </mxCell>
        <mxCell id="IrgzgyzWyKOGPPcn9zRI-70" style="edgeStyle=orthogonalEdgeStyle;rounded=0;orthogonalLoop=1;jettySize=auto;html=1;" edge="1" parent="1">
          <mxGeometry relative="1" as="geometry">
            <mxPoint x="1219.52" y="788" as="sourcePoint" />
            <mxPoint x="1219.52" y="770" as="targetPoint" />
          </mxGeometry>
        </mxCell>
        <mxCell id="IrgzgyzWyKOGPPcn9zRI-71" style="edgeStyle=orthogonalEdgeStyle;rounded=0;orthogonalLoop=1;jettySize=auto;html=1;fillColor=#f5f5f5;strokeColor=#666666;" edge="1" parent="1">
          <mxGeometry relative="1" as="geometry">
            <mxPoint x="459.52" y="938" as="sourcePoint" />
            <mxPoint x="459.52" y="920" as="targetPoint" />
          </mxGeometry>
        </mxCell>
        <mxCell id="IrgzgyzWyKOGPPcn9zRI-72" style="edgeStyle=orthogonalEdgeStyle;rounded=0;orthogonalLoop=1;jettySize=auto;html=1;fillColor=#f5f5f5;strokeColor=#666666;" edge="1" parent="1">
          <mxGeometry relative="1" as="geometry">
            <mxPoint x="779.52" y="938" as="sourcePoint" />
            <mxPoint x="779.52" y="920" as="targetPoint" />
          </mxGeometry>
        </mxCell>
        <mxCell id="IrgzgyzWyKOGPPcn9zRI-73" style="edgeStyle=orthogonalEdgeStyle;rounded=0;orthogonalLoop=1;jettySize=auto;html=1;fillColor=#f5f5f5;strokeColor=#666666;" edge="1" parent="1">
          <mxGeometry relative="1" as="geometry">
            <mxPoint x="859.52" y="938" as="sourcePoint" />
            <mxPoint x="859.52" y="920" as="targetPoint" />
          </mxGeometry>
        </mxCell>
        <mxCell id="IrgzgyzWyKOGPPcn9zRI-74" style="edgeStyle=orthogonalEdgeStyle;rounded=0;orthogonalLoop=1;jettySize=auto;html=1;fillColor=#f5f5f5;strokeColor=#666666;" edge="1" parent="1">
          <mxGeometry relative="1" as="geometry">
            <mxPoint x="939.52" y="938" as="sourcePoint" />
            <mxPoint x="939.52" y="920" as="targetPoint" />
          </mxGeometry>
        </mxCell>
        <mxCell id="IrgzgyzWyKOGPPcn9zRI-75" style="edgeStyle=orthogonalEdgeStyle;rounded=0;orthogonalLoop=1;jettySize=auto;html=1;fillColor=#f5f5f5;strokeColor=#666666;" edge="1" parent="1">
          <mxGeometry relative="1" as="geometry">
            <mxPoint x="1019.52" y="938" as="sourcePoint" />
            <mxPoint x="1019.52" y="920" as="targetPoint" />
          </mxGeometry>
        </mxCell>
        <mxCell id="IrgzgyzWyKOGPPcn9zRI-76" style="edgeStyle=orthogonalEdgeStyle;rounded=0;orthogonalLoop=1;jettySize=auto;html=1;fillColor=#f5f5f5;strokeColor=#666666;" edge="1" parent="1">
          <mxGeometry relative="1" as="geometry">
            <mxPoint x="1099.52" y="940" as="sourcePoint" />
            <mxPoint x="1099.52" y="922" as="targetPoint" />
          </mxGeometry>
        </mxCell>
        <mxCell id="IrgzgyzWyKOGPPcn9zRI-77" style="edgeStyle=orthogonalEdgeStyle;rounded=0;orthogonalLoop=1;jettySize=auto;html=1;fillColor=#f5f5f5;strokeColor=#666666;" edge="1" parent="1">
          <mxGeometry relative="1" as="geometry">
            <mxPoint x="1219.52" y="938" as="sourcePoint" />
            <mxPoint x="1219.52" y="920" as="targetPoint" />
          </mxGeometry>
        </mxCell>
        <mxCell id="IrgzgyzWyKOGPPcn9zRI-78" style="edgeStyle=orthogonalEdgeStyle;rounded=0;orthogonalLoop=1;jettySize=auto;html=1;fillColor=#f5f5f5;strokeColor=#666666;" edge="1" parent="1">
          <mxGeometry relative="1" as="geometry">
            <mxPoint x="619.52" y="938" as="sourcePoint" />
            <mxPoint x="619.52" y="920" as="targetPoint" />
          </mxGeometry>
        </mxCell>
        <mxCell id="IrgzgyzWyKOGPPcn9zRI-79" style="edgeStyle=orthogonalEdgeStyle;rounded=0;orthogonalLoop=1;jettySize=auto;html=1;fillColor=#f5f5f5;strokeColor=#666666;" edge="1" parent="1">
          <mxGeometry relative="1" as="geometry">
            <mxPoint x="699.52" y="938" as="sourcePoint" />
            <mxPoint x="699.52" y="920" as="targetPoint" />
          </mxGeometry>
        </mxCell>
        <mxCell id="IrgzgyzWyKOGPPcn9zRI-81" value="argmax + thresholding" style="rounded=1;whiteSpace=wrap;html=1;fillColor=#dae8fc;strokeColor=#6c8ebf;" vertex="1" parent="1">
          <mxGeometry x="440" y="590" width="800" height="30" as="geometry" />
        </mxCell>
        <mxCell id="IrgzgyzWyKOGPPcn9zRI-82" style="edgeStyle=orthogonalEdgeStyle;rounded=0;orthogonalLoop=1;jettySize=auto;html=1;" edge="1" parent="1">
          <mxGeometry relative="1" as="geometry">
            <mxPoint x="459.52" y="638" as="sourcePoint" />
            <mxPoint x="459.52" y="620" as="targetPoint" />
          </mxGeometry>
        </mxCell>
        <mxCell id="IrgzgyzWyKOGPPcn9zRI-83" value="&lt;div&gt;&lt;span style=&quot;color: rgb(32, 33, 34); font-family: &amp;quot;Scheherazade New&amp;quot;, &amp;quot;SF Arabic&amp;quot;, Scheherazade, Lateef, Amiri, &amp;quot;Noto Naskh Arabic&amp;quot;, &amp;quot;Droid Arabic Naskh&amp;quot;, &amp;quot;Microsoft Uighur&amp;quot;, &amp;quot;Noto Sans Arabic&amp;quot;, &amp;quot;Sakkal Majalla&amp;quot;, Harmattan, &amp;quot;Arabic Typesetting&amp;quot;, &amp;quot;Arabic Transparent&amp;quot;, &amp;quot;Times New Roman&amp;quot;, Arial, Calibri, &amp;quot;Microsoft Sans Serif&amp;quot;, &amp;quot;Segoe UI&amp;quot;, serif, sans-serif; font-size: 31.5px; text-align: start;&quot;&gt;ـَ&lt;/span&gt;&lt;br&gt;&lt;/div&gt;" style="rounded=0;whiteSpace=wrap;html=1;strokeWidth=1;fillColor=#d5e8d4;strokeColor=#82b366;" vertex="1" parent="1">
          <mxGeometry x="440" y="550" width="40" height="20" as="geometry" />
        </mxCell>
        <mxCell id="IrgzgyzWyKOGPPcn9zRI-84" value="&lt;div&gt;&lt;span style=&quot;font-family: &amp;quot;Scheherazade New&amp;quot;, &amp;quot;SF Arabic&amp;quot;, Scheherazade, Lateef, Amiri, &amp;quot;Noto Naskh Arabic&amp;quot;, &amp;quot;Droid Arabic Naskh&amp;quot;, &amp;quot;Microsoft Uighur&amp;quot;, &amp;quot;Noto Sans Arabic&amp;quot;, &amp;quot;Sakkal Majalla&amp;quot;, Harmattan, &amp;quot;Arabic Typesetting&amp;quot;, &amp;quot;Arabic Transparent&amp;quot;, &amp;quot;Times New Roman&amp;quot;, Arial, Calibri, &amp;quot;Microsoft Sans Serif&amp;quot;, &amp;quot;Segoe UI&amp;quot;, serif, sans-serif; color: rgb(32, 33, 34); text-align: start; font-size: 31.5px;&quot; dir=&quot;rtl&quot; class=&quot;script-arabic script-Arab&quot;&gt;ـْـ&lt;/span&gt;&lt;span style=&quot;color: rgb(32, 33, 34); font-family: sans-serif; font-size: 25.2px; text-align: start;&quot;&gt;‎&lt;/span&gt;&lt;br&gt;&lt;/div&gt;" style="rounded=0;whiteSpace=wrap;html=1;fillColor=#d5e8d4;strokeColor=#82b366;" vertex="1" parent="1">
          <mxGeometry x="520" y="550" width="40" height="20" as="geometry" />
        </mxCell>
        <mxCell id="IrgzgyzWyKOGPPcn9zRI-85" value="&lt;br&gt;&lt;span style=&quot;color: rgb(32, 33, 34); font-family: &amp;quot;Scheherazade New&amp;quot;, &amp;quot;SF Arabic&amp;quot;, Scheherazade, Lateef, Amiri, &amp;quot;Noto Naskh Arabic&amp;quot;, &amp;quot;Droid Arabic Naskh&amp;quot;, &amp;quot;Microsoft Uighur&amp;quot;, &amp;quot;Noto Sans Arabic&amp;quot;, &amp;quot;Sakkal Majalla&amp;quot;, Harmattan, &amp;quot;Arabic Typesetting&amp;quot;, &amp;quot;Arabic Transparent&amp;quot;, &amp;quot;Times New Roman&amp;quot;, Arial, Calibri, &amp;quot;Microsoft Sans Serif&amp;quot;, &amp;quot;Segoe UI&amp;quot;, serif, sans-serif; font-size: 31.5px; font-style: normal; font-variant-ligatures: normal; font-variant-caps: normal; font-weight: 400; letter-spacing: normal; orphans: 2; text-align: start; text-indent: 0px; text-transform: none; widows: 2; word-spacing: 0px; -webkit-text-stroke-width: 0px; white-space: normal; text-decoration-thickness: initial; text-decoration-style: initial; text-decoration-color: initial; float: none; display: inline !important;&quot;&gt;ـً&lt;/span&gt;&lt;div&gt;&lt;br/&gt;&lt;/div&gt;" style="rounded=0;whiteSpace=wrap;html=1;fillColor=#d5e8d4;strokeColor=#82b366;" vertex="1" parent="1">
          <mxGeometry x="600" y="550" width="40" height="20" as="geometry" />
        </mxCell>
        <mxCell id="IrgzgyzWyKOGPPcn9zRI-86" value="N" style="rounded=0;whiteSpace=wrap;html=1;fillColor=#d5e8d4;strokeColor=#82b366;" vertex="1" parent="1">
          <mxGeometry x="680" y="550" width="40" height="20" as="geometry" />
        </mxCell>
        <mxCell id="IrgzgyzWyKOGPPcn9zRI-87" value="_" style="rounded=0;whiteSpace=wrap;html=1;fillColor=#d5e8d4;strokeColor=#82b366;" vertex="1" parent="1">
          <mxGeometry x="760" y="550" width="40" height="20" as="geometry" />
        </mxCell>
        <mxCell id="IrgzgyzWyKOGPPcn9zRI-88" value="&lt;br&gt;&lt;span style=&quot;font-family: &amp;quot;Scheherazade New&amp;quot;, &amp;quot;SF Arabic&amp;quot;, Scheherazade, Lateef, Amiri, &amp;quot;Noto Naskh Arabic&amp;quot;, &amp;quot;Droid Arabic Naskh&amp;quot;, &amp;quot;Microsoft Uighur&amp;quot;, &amp;quot;Noto Sans Arabic&amp;quot;, &amp;quot;Sakkal Majalla&amp;quot;, Harmattan, &amp;quot;Arabic Typesetting&amp;quot;, &amp;quot;Arabic Transparent&amp;quot;, &amp;quot;Times New Roman&amp;quot;, Arial, Calibri, &amp;quot;Microsoft Sans Serif&amp;quot;, &amp;quot;Segoe UI&amp;quot;, serif, sans-serif; font-weight: 400; color: rgb(32, 33, 34); font-style: normal; font-variant-ligatures: normal; font-variant-caps: normal; letter-spacing: normal; orphans: 2; text-align: start; text-indent: 0px; text-transform: none; widows: 2; word-spacing: 0px; -webkit-text-stroke-width: 0px; white-space: normal; text-decoration-thickness: initial; text-decoration-style: initial; text-decoration-color: initial; font-size: 31.5px;&quot; dir=&quot;rtl&quot; class=&quot;script-arabic script-Arab&quot;&gt;ـِ&lt;/span&gt;&lt;span style=&quot;color: rgb(32, 33, 34); font-family: sans-serif; font-size: 25.2px; font-style: normal; font-variant-ligatures: normal; font-variant-caps: normal; font-weight: 400; letter-spacing: normal; orphans: 2; text-align: start; text-indent: 0px; text-transform: none; widows: 2; word-spacing: 0px; -webkit-text-stroke-width: 0px; white-space: normal; text-decoration-thickness: initial; text-decoration-style: initial; text-decoration-color: initial; float: none; display: inline !important;&quot;&gt;‎&lt;/span&gt;&lt;div&gt;&lt;br/&gt;&lt;/div&gt;" style="rounded=0;whiteSpace=wrap;html=1;fillColor=#d5e8d4;strokeColor=#82b366;" vertex="1" parent="1">
          <mxGeometry x="840" y="550" width="40" height="20" as="geometry" />
        </mxCell>
        <mxCell id="IrgzgyzWyKOGPPcn9zRI-89" value="&lt;br&gt;&lt;span style=&quot;font-family: &amp;quot;Scheherazade New&amp;quot;, &amp;quot;SF Arabic&amp;quot;, Scheherazade, Lateef, Amiri, &amp;quot;Noto Naskh Arabic&amp;quot;, &amp;quot;Droid Arabic Naskh&amp;quot;, &amp;quot;Microsoft Uighur&amp;quot;, &amp;quot;Noto Sans Arabic&amp;quot;, &amp;quot;Sakkal Majalla&amp;quot;, Harmattan, &amp;quot;Arabic Typesetting&amp;quot;, &amp;quot;Arabic Transparent&amp;quot;, &amp;quot;Times New Roman&amp;quot;, Arial, Calibri, &amp;quot;Microsoft Sans Serif&amp;quot;, &amp;quot;Segoe UI&amp;quot;, serif, sans-serif; font-weight: 400; color: rgb(32, 33, 34); font-style: normal; font-variant-ligatures: normal; font-variant-caps: normal; letter-spacing: normal; orphans: 2; text-align: start; text-indent: 0px; text-transform: none; widows: 2; word-spacing: 0px; -webkit-text-stroke-width: 0px; white-space: normal; text-decoration-thickness: initial; text-decoration-style: initial; text-decoration-color: initial; font-size: 31.5px;&quot; dir=&quot;rtl&quot; class=&quot;script-arabic script-Arab&quot;&gt;ـُ&lt;/span&gt;&lt;span style=&quot;color: rgb(32, 33, 34); font-family: sans-serif; font-size: 25.2px; font-style: normal; font-variant-ligatures: normal; font-variant-caps: normal; font-weight: 400; letter-spacing: normal; orphans: 2; text-align: start; text-indent: 0px; text-transform: none; widows: 2; word-spacing: 0px; -webkit-text-stroke-width: 0px; white-space: normal; text-decoration-thickness: initial; text-decoration-style: initial; text-decoration-color: initial; float: none; display: inline !important;&quot;&gt;‎&lt;/span&gt;&lt;div&gt;&lt;br/&gt;&lt;/div&gt;" style="rounded=0;whiteSpace=wrap;html=1;fillColor=#d5e8d4;strokeColor=#82b366;" vertex="1" parent="1">
          <mxGeometry x="920" y="550" width="40" height="20" as="geometry" />
        </mxCell>
        <mxCell id="IrgzgyzWyKOGPPcn9zRI-90" value="&lt;br&gt;&lt;span style=&quot;forced-color-adjust: none; font-style: normal; font-variant-ligatures: normal; font-variant-caps: normal; font-weight: 400; letter-spacing: normal; orphans: 2; text-indent: 0px; text-transform: none; widows: 2; word-spacing: 0px; -webkit-text-stroke-width: 0px; white-space: normal; text-decoration-thickness: initial; text-decoration-style: initial; text-decoration-color: initial; font-family: &amp;quot;Scheherazade New&amp;quot;, &amp;quot;SF Arabic&amp;quot;, Scheherazade, Lateef, Amiri, &amp;quot;Noto Naskh Arabic&amp;quot;, &amp;quot;Droid Arabic Naskh&amp;quot;, &amp;quot;Microsoft Uighur&amp;quot;, &amp;quot;Noto Sans Arabic&amp;quot;, &amp;quot;Sakkal Majalla&amp;quot;, Harmattan, &amp;quot;Arabic Typesetting&amp;quot;, &amp;quot;Arabic Transparent&amp;quot;, &amp;quot;Times New Roman&amp;quot;, Arial, Calibri, &amp;quot;Microsoft Sans Serif&amp;quot;, &amp;quot;Segoe UI&amp;quot;, serif, sans-serif; color: rgb(32, 33, 34); text-align: start; font-size: 31.5px;&quot; dir=&quot;rtl&quot; class=&quot;script-arabic script-Arab&quot;&gt;ـْـ&lt;/span&gt;&lt;span style=&quot;forced-color-adjust: none; font-style: normal; font-variant-ligatures: normal; font-variant-caps: normal; font-weight: 400; letter-spacing: normal; orphans: 2; text-indent: 0px; text-transform: none; widows: 2; word-spacing: 0px; -webkit-text-stroke-width: 0px; white-space: normal; text-decoration-thickness: initial; text-decoration-style: initial; text-decoration-color: initial; color: rgb(32, 33, 34); font-family: sans-serif; font-size: 25.2px; text-align: start;&quot;&gt;‎&lt;/span&gt;&lt;div&gt;&lt;br/&gt;&lt;/div&gt;" style="rounded=0;whiteSpace=wrap;html=1;fillColor=#d5e8d4;strokeColor=#82b366;" vertex="1" parent="1">
          <mxGeometry x="1000" y="550" width="40" height="20" as="geometry" />
        </mxCell>
        <mxCell id="IrgzgyzWyKOGPPcn9zRI-91" value="&lt;br&gt;&lt;span style=&quot;forced-color-adjust: none; font-style: normal; font-variant-ligatures: normal; font-variant-caps: normal; font-weight: 400; letter-spacing: normal; orphans: 2; text-indent: 0px; text-transform: none; widows: 2; word-spacing: 0px; -webkit-text-stroke-width: 0px; white-space: normal; text-decoration-thickness: initial; text-decoration-style: initial; text-decoration-color: initial; font-family: &amp;quot;Scheherazade New&amp;quot;, &amp;quot;SF Arabic&amp;quot;, Scheherazade, Lateef, Amiri, &amp;quot;Noto Naskh Arabic&amp;quot;, &amp;quot;Droid Arabic Naskh&amp;quot;, &amp;quot;Microsoft Uighur&amp;quot;, &amp;quot;Noto Sans Arabic&amp;quot;, &amp;quot;Sakkal Majalla&amp;quot;, Harmattan, &amp;quot;Arabic Typesetting&amp;quot;, &amp;quot;Arabic Transparent&amp;quot;, &amp;quot;Times New Roman&amp;quot;, Arial, Calibri, &amp;quot;Microsoft Sans Serif&amp;quot;, &amp;quot;Segoe UI&amp;quot;, serif, sans-serif; color: rgb(32, 33, 34); text-align: start; font-size: 31.5px;&quot; dir=&quot;rtl&quot; class=&quot;script-arabic script-Arab&quot;&gt;ـْـ&lt;/span&gt;&lt;span style=&quot;forced-color-adjust: none; font-style: normal; font-variant-ligatures: normal; font-variant-caps: normal; font-weight: 400; letter-spacing: normal; orphans: 2; text-indent: 0px; text-transform: none; widows: 2; word-spacing: 0px; -webkit-text-stroke-width: 0px; white-space: normal; text-decoration-thickness: initial; text-decoration-style: initial; text-decoration-color: initial; color: rgb(32, 33, 34); font-family: sans-serif; font-size: 25.2px; text-align: start;&quot;&gt;‎&lt;/span&gt;&lt;div&gt;&lt;br/&gt;&lt;/div&gt;" style="rounded=0;whiteSpace=wrap;html=1;fillColor=#d5e8d4;strokeColor=#82b366;" vertex="1" parent="1">
          <mxGeometry x="1200" y="550" width="40" height="20" as="geometry" />
        </mxCell>
        <mxCell id="IrgzgyzWyKOGPPcn9zRI-92" value="_" style="rounded=0;whiteSpace=wrap;html=1;fillColor=#d5e8d4;strokeColor=#82b366;" vertex="1" parent="1">
          <mxGeometry x="1080" y="550" width="40" height="20" as="geometry" />
        </mxCell>
        <mxCell id="IrgzgyzWyKOGPPcn9zRI-95" style="edgeStyle=orthogonalEdgeStyle;rounded=0;orthogonalLoop=1;jettySize=auto;html=1;" edge="1" parent="1">
          <mxGeometry relative="1" as="geometry">
            <mxPoint x="859.29" y="838" as="sourcePoint" />
            <mxPoint x="859.29" y="820" as="targetPoint" />
          </mxGeometry>
        </mxCell>
        <mxCell id="IrgzgyzWyKOGPPcn9zRI-96" style="edgeStyle=orthogonalEdgeStyle;rounded=0;orthogonalLoop=1;jettySize=auto;html=1;" edge="1" parent="1">
          <mxGeometry relative="1" as="geometry">
            <mxPoint x="779.29" y="838" as="sourcePoint" />
            <mxPoint x="779.29" y="820" as="targetPoint" />
          </mxGeometry>
        </mxCell>
        <mxCell id="IrgzgyzWyKOGPPcn9zRI-97" style="edgeStyle=orthogonalEdgeStyle;rounded=0;orthogonalLoop=1;jettySize=auto;html=1;" edge="1" parent="1">
          <mxGeometry relative="1" as="geometry">
            <mxPoint x="699.29" y="838" as="sourcePoint" />
            <mxPoint x="699.29" y="820" as="targetPoint" />
          </mxGeometry>
        </mxCell>
        <mxCell id="IrgzgyzWyKOGPPcn9zRI-98" style="edgeStyle=orthogonalEdgeStyle;rounded=0;orthogonalLoop=1;jettySize=auto;html=1;" edge="1" parent="1">
          <mxGeometry relative="1" as="geometry">
            <mxPoint x="619.29" y="838" as="sourcePoint" />
            <mxPoint x="619.29" y="820" as="targetPoint" />
          </mxGeometry>
        </mxCell>
        <mxCell id="IrgzgyzWyKOGPPcn9zRI-99" style="edgeStyle=orthogonalEdgeStyle;rounded=0;orthogonalLoop=1;jettySize=auto;html=1;" edge="1" parent="1">
          <mxGeometry relative="1" as="geometry">
            <mxPoint x="539.29" y="838" as="sourcePoint" />
            <mxPoint x="539.29" y="820" as="targetPoint" />
          </mxGeometry>
        </mxCell>
        <mxCell id="IrgzgyzWyKOGPPcn9zRI-100" style="edgeStyle=orthogonalEdgeStyle;rounded=0;orthogonalLoop=1;jettySize=auto;html=1;" edge="1" parent="1">
          <mxGeometry relative="1" as="geometry">
            <mxPoint x="459.29" y="838" as="sourcePoint" />
            <mxPoint x="459.29" y="820" as="targetPoint" />
          </mxGeometry>
        </mxCell>
        <mxCell id="IrgzgyzWyKOGPPcn9zRI-101" style="edgeStyle=orthogonalEdgeStyle;rounded=0;orthogonalLoop=1;jettySize=auto;html=1;" edge="1" parent="1">
          <mxGeometry relative="1" as="geometry">
            <mxPoint x="1219.38" y="638" as="sourcePoint" />
            <mxPoint x="1219.38" y="620" as="targetPoint" />
          </mxGeometry>
        </mxCell>
        <mxCell id="IrgzgyzWyKOGPPcn9zRI-102" style="edgeStyle=orthogonalEdgeStyle;rounded=0;orthogonalLoop=1;jettySize=auto;html=1;" edge="1" parent="1">
          <mxGeometry relative="1" as="geometry">
            <mxPoint x="1099.38" y="638" as="sourcePoint" />
            <mxPoint x="1099.38" y="620" as="targetPoint" />
          </mxGeometry>
        </mxCell>
        <mxCell id="IrgzgyzWyKOGPPcn9zRI-103" style="edgeStyle=orthogonalEdgeStyle;rounded=0;orthogonalLoop=1;jettySize=auto;html=1;" edge="1" parent="1">
          <mxGeometry relative="1" as="geometry">
            <mxPoint x="1019.38" y="638" as="sourcePoint" />
            <mxPoint x="1019.38" y="620" as="targetPoint" />
          </mxGeometry>
        </mxCell>
        <mxCell id="IrgzgyzWyKOGPPcn9zRI-104" style="edgeStyle=orthogonalEdgeStyle;rounded=0;orthogonalLoop=1;jettySize=auto;html=1;" edge="1" parent="1">
          <mxGeometry relative="1" as="geometry">
            <mxPoint x="939.38" y="638" as="sourcePoint" />
            <mxPoint x="939.38" y="620" as="targetPoint" />
          </mxGeometry>
        </mxCell>
        <mxCell id="IrgzgyzWyKOGPPcn9zRI-105" style="edgeStyle=orthogonalEdgeStyle;rounded=0;orthogonalLoop=1;jettySize=auto;html=1;" edge="1" parent="1">
          <mxGeometry relative="1" as="geometry">
            <mxPoint x="859.38" y="638" as="sourcePoint" />
            <mxPoint x="859.38" y="620" as="targetPoint" />
          </mxGeometry>
        </mxCell>
        <mxCell id="IrgzgyzWyKOGPPcn9zRI-106" style="edgeStyle=orthogonalEdgeStyle;rounded=0;orthogonalLoop=1;jettySize=auto;html=1;" edge="1" parent="1">
          <mxGeometry relative="1" as="geometry">
            <mxPoint x="779.38" y="638" as="sourcePoint" />
            <mxPoint x="779.38" y="620" as="targetPoint" />
          </mxGeometry>
        </mxCell>
        <mxCell id="IrgzgyzWyKOGPPcn9zRI-107" style="edgeStyle=orthogonalEdgeStyle;rounded=0;orthogonalLoop=1;jettySize=auto;html=1;" edge="1" parent="1">
          <mxGeometry relative="1" as="geometry">
            <mxPoint x="699.38" y="638" as="sourcePoint" />
            <mxPoint x="699.38" y="620" as="targetPoint" />
          </mxGeometry>
        </mxCell>
        <mxCell id="IrgzgyzWyKOGPPcn9zRI-108" style="edgeStyle=orthogonalEdgeStyle;rounded=0;orthogonalLoop=1;jettySize=auto;html=1;" edge="1" parent="1">
          <mxGeometry relative="1" as="geometry">
            <mxPoint x="619.38" y="638" as="sourcePoint" />
            <mxPoint x="619.38" y="620" as="targetPoint" />
          </mxGeometry>
        </mxCell>
        <mxCell id="IrgzgyzWyKOGPPcn9zRI-109" style="edgeStyle=orthogonalEdgeStyle;rounded=0;orthogonalLoop=1;jettySize=auto;html=1;" edge="1" parent="1">
          <mxGeometry relative="1" as="geometry">
            <mxPoint x="539.38" y="638" as="sourcePoint" />
            <mxPoint x="539.38" y="620" as="targetPoint" />
          </mxGeometry>
        </mxCell>
        <mxCell id="IrgzgyzWyKOGPPcn9zRI-110" style="edgeStyle=orthogonalEdgeStyle;rounded=0;orthogonalLoop=1;jettySize=auto;html=1;" edge="1" parent="1">
          <mxGeometry relative="1" as="geometry">
            <mxPoint x="1219.38" y="588" as="sourcePoint" />
            <mxPoint x="1219.38" y="570" as="targetPoint" />
          </mxGeometry>
        </mxCell>
        <mxCell id="IrgzgyzWyKOGPPcn9zRI-111" style="edgeStyle=orthogonalEdgeStyle;rounded=0;orthogonalLoop=1;jettySize=auto;html=1;" edge="1" parent="1">
          <mxGeometry relative="1" as="geometry">
            <mxPoint x="459.38" y="590" as="sourcePoint" />
            <mxPoint x="459.38" y="572" as="targetPoint" />
          </mxGeometry>
        </mxCell>
        <mxCell id="IrgzgyzWyKOGPPcn9zRI-112" style="edgeStyle=orthogonalEdgeStyle;rounded=0;orthogonalLoop=1;jettySize=auto;html=1;" edge="1" parent="1">
          <mxGeometry relative="1" as="geometry">
            <mxPoint x="1099.38" y="588" as="sourcePoint" />
            <mxPoint x="1099.38" y="570" as="targetPoint" />
          </mxGeometry>
        </mxCell>
        <mxCell id="IrgzgyzWyKOGPPcn9zRI-113" style="edgeStyle=orthogonalEdgeStyle;rounded=0;orthogonalLoop=1;jettySize=auto;html=1;" edge="1" parent="1">
          <mxGeometry relative="1" as="geometry">
            <mxPoint x="1019.38" y="588" as="sourcePoint" />
            <mxPoint x="1019.38" y="570" as="targetPoint" />
          </mxGeometry>
        </mxCell>
        <mxCell id="IrgzgyzWyKOGPPcn9zRI-114" style="edgeStyle=orthogonalEdgeStyle;rounded=0;orthogonalLoop=1;jettySize=auto;html=1;" edge="1" parent="1">
          <mxGeometry relative="1" as="geometry">
            <mxPoint x="539.38" y="588" as="sourcePoint" />
            <mxPoint x="539.38" y="570" as="targetPoint" />
          </mxGeometry>
        </mxCell>
        <mxCell id="IrgzgyzWyKOGPPcn9zRI-115" style="edgeStyle=orthogonalEdgeStyle;rounded=0;orthogonalLoop=1;jettySize=auto;html=1;" edge="1" parent="1">
          <mxGeometry relative="1" as="geometry">
            <mxPoint x="699.38" y="588" as="sourcePoint" />
            <mxPoint x="699.38" y="570" as="targetPoint" />
          </mxGeometry>
        </mxCell>
        <mxCell id="IrgzgyzWyKOGPPcn9zRI-116" style="edgeStyle=orthogonalEdgeStyle;rounded=0;orthogonalLoop=1;jettySize=auto;html=1;" edge="1" parent="1">
          <mxGeometry relative="1" as="geometry">
            <mxPoint x="619.38" y="588" as="sourcePoint" />
            <mxPoint x="619.38" y="570" as="targetPoint" />
          </mxGeometry>
        </mxCell>
        <mxCell id="IrgzgyzWyKOGPPcn9zRI-117" style="edgeStyle=orthogonalEdgeStyle;rounded=0;orthogonalLoop=1;jettySize=auto;html=1;" edge="1" parent="1">
          <mxGeometry relative="1" as="geometry">
            <mxPoint x="779.38" y="588" as="sourcePoint" />
            <mxPoint x="779.38" y="570" as="targetPoint" />
          </mxGeometry>
        </mxCell>
        <mxCell id="IrgzgyzWyKOGPPcn9zRI-118" style="edgeStyle=orthogonalEdgeStyle;rounded=0;orthogonalLoop=1;jettySize=auto;html=1;" edge="1" parent="1">
          <mxGeometry relative="1" as="geometry">
            <mxPoint x="859.38" y="588" as="sourcePoint" />
            <mxPoint x="859.38" y="570" as="targetPoint" />
          </mxGeometry>
        </mxCell>
        <mxCell id="IrgzgyzWyKOGPPcn9zRI-119" style="edgeStyle=orthogonalEdgeStyle;rounded=0;orthogonalLoop=1;jettySize=auto;html=1;" edge="1" parent="1">
          <mxGeometry relative="1" as="geometry">
            <mxPoint x="939.38" y="588" as="sourcePoint" />
            <mxPoint x="939.38" y="570" as="targetPoint" />
          </mxGeometry>
        </mxCell>
        <mxCell id="IrgzgyzWyKOGPPcn9zRI-120" value="&lt;b&gt;&lt;font style=&quot;font-size: 18px;&quot;&gt;...&lt;/font&gt;&lt;/b&gt;" style="text;html=1;align=center;verticalAlign=middle;resizable=0;points=[];autosize=1;strokeColor=none;fillColor=none;" vertex="1" parent="1">
          <mxGeometry x="1140" y="540" width="40" height="40" as="geometry" />
        </mxCell>
        <mxCell id="IrgzgyzWyKOGPPcn9zRI-122" style="edgeStyle=orthogonalEdgeStyle;rounded=0;orthogonalLoop=1;jettySize=auto;html=1;" edge="1" parent="1">
          <mxGeometry relative="1" as="geometry">
            <mxPoint x="1219.29" y="838" as="sourcePoint" />
            <mxPoint x="1219.29" y="820" as="targetPoint" />
          </mxGeometry>
        </mxCell>
        <mxCell id="IrgzgyzWyKOGPPcn9zRI-123" style="edgeStyle=orthogonalEdgeStyle;rounded=0;orthogonalLoop=1;jettySize=auto;html=1;" edge="1" parent="1">
          <mxGeometry relative="1" as="geometry">
            <mxPoint x="1099.29" y="838" as="sourcePoint" />
            <mxPoint x="1099.29" y="820" as="targetPoint" />
          </mxGeometry>
        </mxCell>
        <mxCell id="IrgzgyzWyKOGPPcn9zRI-124" style="edgeStyle=orthogonalEdgeStyle;rounded=0;orthogonalLoop=1;jettySize=auto;html=1;" edge="1" parent="1">
          <mxGeometry relative="1" as="geometry">
            <mxPoint x="1019.29" y="838" as="sourcePoint" />
            <mxPoint x="1019.29" y="820" as="targetPoint" />
          </mxGeometry>
        </mxCell>
        <mxCell id="IrgzgyzWyKOGPPcn9zRI-125" style="edgeStyle=orthogonalEdgeStyle;rounded=0;orthogonalLoop=1;jettySize=auto;html=1;" edge="1" parent="1">
          <mxGeometry relative="1" as="geometry">
            <mxPoint x="939.29" y="838" as="sourcePoint" />
            <mxPoint x="939.29" y="820" as="targetPoint" />
          </mxGeometry>
        </mxCell>
      </root>
    </mxGraphModel>
  </diagram>
</mxfile>
